<mxfile host="app.diagrams.net" modified="2020-10-17T13:58:52.161Z" agent="5.0 (Windows NT 10.0; Win64; x64) AppleWebKit/537.36 (KHTML, like Gecko) Chrome/86.0.4240.80 Safari/537.36 Edg/86.0.622.43" etag="09zC_IvkD-kTDuVmgIKJ" version="13.8.0" type="github">
  <diagram id="WAH5XEQksWZ3XQTxm0wp" name="Page-1">
    <mxGraphModel dx="865" dy="483" grid="1" gridSize="10" guides="1" tooltips="1" connect="1" arrows="1" fold="1" page="1" pageScale="1" pageWidth="850" pageHeight="1100" math="0" shadow="0">
      <root>
        <mxCell id="0" />
        <mxCell id="1" parent="0" />
        <mxCell id="IsJzRhax2m_8LwNahH-P-30" value="" style="edgeStyle=orthogonalEdgeStyle;rounded=0;orthogonalLoop=1;jettySize=auto;html=1;entryX=0.5;entryY=0;entryDx=0;entryDy=0;" parent="1" source="IsJzRhax2m_8LwNahH-P-20" target="IsJzRhax2m_8LwNahH-P-31" edge="1">
          <mxGeometry relative="1" as="geometry">
            <mxPoint x="455" y="240" as="targetPoint" />
          </mxGeometry>
        </mxCell>
        <mxCell id="IsJzRhax2m_8LwNahH-P-20" value="Start" style="ellipse;whiteSpace=wrap;html=1;rounded=0;fillColor=#FFFFFF;" parent="1" vertex="1">
          <mxGeometry x="365" y="90" width="120" height="80" as="geometry" />
        </mxCell>
        <mxCell id="IsJzRhax2m_8LwNahH-P-38" value="" style="edgeStyle=orthogonalEdgeStyle;rounded=0;orthogonalLoop=1;jettySize=auto;html=1;" parent="1" source="IsJzRhax2m_8LwNahH-P-31" target="IsJzRhax2m_8LwNahH-P-37" edge="1">
          <mxGeometry relative="1" as="geometry" />
        </mxCell>
        <mxCell id="IsJzRhax2m_8LwNahH-P-31" value="x, y" style="verticalLabelPosition=middle;verticalAlign=middle;html=1;shape=trapezoid;perimeter=trapezoidPerimeter;whiteSpace=wrap;size=0.23;arcSize=10;flipV=1;rounded=0;fillColor=#FFFFFF;labelPosition=center;align=center;" parent="1" vertex="1">
          <mxGeometry x="375" y="260" width="100" height="60" as="geometry" />
        </mxCell>
        <mxCell id="IsJzRhax2m_8LwNahH-P-40" value="" style="edgeStyle=orthogonalEdgeStyle;rounded=0;orthogonalLoop=1;jettySize=auto;html=1;" parent="1" source="IsJzRhax2m_8LwNahH-P-37" target="IsJzRhax2m_8LwNahH-P-39" edge="1">
          <mxGeometry relative="1" as="geometry" />
        </mxCell>
        <mxCell id="IsJzRhax2m_8LwNahH-P-37" value="z = xkm/(ykm/h)" style="whiteSpace=wrap;html=1;rounded=0;fillColor=#FFFFFF;arcSize=10;" parent="1" vertex="1">
          <mxGeometry x="365" y="400" width="120" height="60" as="geometry" />
        </mxCell>
        <mxCell id="IsJzRhax2m_8LwNahH-P-42" value="" style="edgeStyle=orthogonalEdgeStyle;rounded=0;orthogonalLoop=1;jettySize=auto;html=1;" parent="1" source="IsJzRhax2m_8LwNahH-P-39" target="IsJzRhax2m_8LwNahH-P-41" edge="1">
          <mxGeometry relative="1" as="geometry" />
        </mxCell>
        <mxCell id="IsJzRhax2m_8LwNahH-P-39" value="z" style="shape=trapezoid;perimeter=trapezoidPerimeter;whiteSpace=wrap;html=1;fixedSize=1;rounded=0;fillColor=#FFFFFF;arcSize=10;" parent="1" vertex="1">
          <mxGeometry x="365" y="540" width="120" height="60" as="geometry" />
        </mxCell>
        <mxCell id="IsJzRhax2m_8LwNahH-P-41" value="Kraj" style="ellipse;whiteSpace=wrap;html=1;rounded=0;fillColor=#FFFFFF;arcSize=10;" parent="1" vertex="1">
          <mxGeometry x="365" y="670" width="120" height="80" as="geometry" />
        </mxCell>
        <mxCell id="IsJzRhax2m_8LwNahH-P-45" value="" style="edgeStyle=orthogonalEdgeStyle;rounded=0;orthogonalLoop=1;jettySize=auto;html=1;entryX=0.5;entryY=0;entryDx=0;entryDy=0;" parent="1" source="IsJzRhax2m_8LwNahH-P-43" target="IsJzRhax2m_8LwNahH-P-46" edge="1">
          <mxGeometry relative="1" as="geometry">
            <mxPoint x="1275" y="240" as="targetPoint" />
          </mxGeometry>
        </mxCell>
        <mxCell id="IsJzRhax2m_8LwNahH-P-43" value="Start" style="ellipse;whiteSpace=wrap;html=1;rounded=0;fillColor=#FFFFFF;" parent="1" vertex="1">
          <mxGeometry x="1215" y="70" width="120" height="80" as="geometry" />
        </mxCell>
        <mxCell id="IsJzRhax2m_8LwNahH-P-48" value="" style="edgeStyle=orthogonalEdgeStyle;rounded=0;orthogonalLoop=1;jettySize=auto;html=1;" parent="1" source="IsJzRhax2m_8LwNahH-P-46" target="IsJzRhax2m_8LwNahH-P-47" edge="1">
          <mxGeometry relative="1" as="geometry" />
        </mxCell>
        <mxCell id="IsJzRhax2m_8LwNahH-P-46" value="x, y, z" style="verticalLabelPosition=middle;verticalAlign=middle;html=1;shape=trapezoid;perimeter=trapezoidPerimeter;whiteSpace=wrap;size=0.23;arcSize=10;flipV=1;rounded=0;fillColor=#FFFFFF;labelPosition=center;align=center;" parent="1" vertex="1">
          <mxGeometry x="1225" y="240" width="100" height="60" as="geometry" />
        </mxCell>
        <mxCell id="IsJzRhax2m_8LwNahH-P-50" value="" style="edgeStyle=orthogonalEdgeStyle;rounded=0;orthogonalLoop=1;jettySize=auto;html=1;" parent="1" source="IsJzRhax2m_8LwNahH-P-47" target="IsJzRhax2m_8LwNahH-P-49" edge="1">
          <mxGeometry relative="1" as="geometry" />
        </mxCell>
        <mxCell id="IsJzRhax2m_8LwNahH-P-52" value="" style="edgeStyle=orthogonalEdgeStyle;rounded=0;orthogonalLoop=1;jettySize=auto;html=1;" parent="1" source="IsJzRhax2m_8LwNahH-P-47" target="IsJzRhax2m_8LwNahH-P-51" edge="1">
          <mxGeometry relative="1" as="geometry" />
        </mxCell>
        <mxCell id="IsJzRhax2m_8LwNahH-P-47" value="x&amp;lt;y" style="shape=hexagon;perimeter=hexagonPerimeter2;whiteSpace=wrap;html=1;fixedSize=1;rounded=0;fillColor=#FFFFFF;arcSize=10;" parent="1" vertex="1">
          <mxGeometry x="1215" y="370" width="120" height="80" as="geometry" />
        </mxCell>
        <mxCell id="IsJzRhax2m_8LwNahH-P-56" value="" style="edgeStyle=orthogonalEdgeStyle;rounded=0;orthogonalLoop=1;jettySize=auto;html=1;" parent="1" source="IsJzRhax2m_8LwNahH-P-49" target="IsJzRhax2m_8LwNahH-P-55" edge="1">
          <mxGeometry relative="1" as="geometry" />
        </mxCell>
        <mxCell id="IsJzRhax2m_8LwNahH-P-65" style="edgeStyle=orthogonalEdgeStyle;rounded=0;orthogonalLoop=1;jettySize=auto;html=1;" parent="1" source="IsJzRhax2m_8LwNahH-P-49" target="IsJzRhax2m_8LwNahH-P-61" edge="1">
          <mxGeometry relative="1" as="geometry" />
        </mxCell>
        <mxCell id="IsJzRhax2m_8LwNahH-P-49" value="x&amp;lt;z" style="shape=hexagon;perimeter=hexagonPerimeter2;whiteSpace=wrap;html=1;fixedSize=1;rounded=0;fillColor=#FFFFFF;arcSize=10;" parent="1" vertex="1">
          <mxGeometry x="1345" y="470" width="120" height="80" as="geometry" />
        </mxCell>
        <mxCell id="IsJzRhax2m_8LwNahH-P-58" value="" style="edgeStyle=orthogonalEdgeStyle;rounded=0;orthogonalLoop=1;jettySize=auto;html=1;" parent="1" source="IsJzRhax2m_8LwNahH-P-51" target="IsJzRhax2m_8LwNahH-P-57" edge="1">
          <mxGeometry relative="1" as="geometry" />
        </mxCell>
        <mxCell id="IsJzRhax2m_8LwNahH-P-62" value="" style="edgeStyle=orthogonalEdgeStyle;rounded=0;orthogonalLoop=1;jettySize=auto;html=1;" parent="1" source="IsJzRhax2m_8LwNahH-P-51" target="IsJzRhax2m_8LwNahH-P-61" edge="1">
          <mxGeometry relative="1" as="geometry" />
        </mxCell>
        <mxCell id="IsJzRhax2m_8LwNahH-P-51" value="y&amp;lt;z" style="shape=hexagon;perimeter=hexagonPerimeter2;whiteSpace=wrap;html=1;fixedSize=1;rounded=0;fillColor=#FFFFFF;arcSize=10;" parent="1" vertex="1">
          <mxGeometry x="1085" y="470" width="120" height="80" as="geometry" />
        </mxCell>
        <mxCell id="IsJzRhax2m_8LwNahH-P-68" style="edgeStyle=orthogonalEdgeStyle;rounded=0;orthogonalLoop=1;jettySize=auto;html=1;entryX=1;entryY=0.5;entryDx=0;entryDy=0;" parent="1" source="IsJzRhax2m_8LwNahH-P-55" target="IsJzRhax2m_8LwNahH-P-66" edge="1">
          <mxGeometry relative="1" as="geometry" />
        </mxCell>
        <mxCell id="IsJzRhax2m_8LwNahH-P-55" value="x je najmanji broj" style="shape=trapezoid;perimeter=trapezoidPerimeter;whiteSpace=wrap;html=1;fixedSize=1;rounded=0;fillColor=#FFFFFF;arcSize=10;" parent="1" vertex="1">
          <mxGeometry x="1475" y="590" width="120" height="60" as="geometry" />
        </mxCell>
        <mxCell id="IsJzRhax2m_8LwNahH-P-69" style="edgeStyle=orthogonalEdgeStyle;rounded=0;orthogonalLoop=1;jettySize=auto;html=1;entryX=0;entryY=0.5;entryDx=0;entryDy=0;" parent="1" source="IsJzRhax2m_8LwNahH-P-57" target="IsJzRhax2m_8LwNahH-P-66" edge="1">
          <mxGeometry relative="1" as="geometry" />
        </mxCell>
        <mxCell id="IsJzRhax2m_8LwNahH-P-57" value="y je najmanji broj" style="shape=trapezoid;perimeter=trapezoidPerimeter;whiteSpace=wrap;html=1;fixedSize=1;rounded=0;fillColor=#FFFFFF;arcSize=10;" parent="1" vertex="1">
          <mxGeometry x="955" y="590" width="120" height="60" as="geometry" />
        </mxCell>
        <mxCell id="IsJzRhax2m_8LwNahH-P-67" value="" style="edgeStyle=orthogonalEdgeStyle;rounded=0;orthogonalLoop=1;jettySize=auto;html=1;" parent="1" source="IsJzRhax2m_8LwNahH-P-61" target="IsJzRhax2m_8LwNahH-P-66" edge="1">
          <mxGeometry relative="1" as="geometry" />
        </mxCell>
        <mxCell id="IsJzRhax2m_8LwNahH-P-61" value="z je najmanji broj" style="shape=trapezoid;perimeter=trapezoidPerimeter;whiteSpace=wrap;html=1;fixedSize=1;rounded=0;fillColor=#FFFFFF;arcSize=10;" parent="1" vertex="1">
          <mxGeometry x="1215" y="590" width="120" height="60" as="geometry" />
        </mxCell>
        <mxCell id="IsJzRhax2m_8LwNahH-P-66" value="Kraj" style="ellipse;whiteSpace=wrap;html=1;rounded=0;fillColor=#FFFFFF;arcSize=10;" parent="1" vertex="1">
          <mxGeometry x="1215" y="720" width="120" height="80" as="geometry" />
        </mxCell>
        <mxCell id="IsJzRhax2m_8LwNahH-P-70" value="" style="edgeStyle=orthogonalEdgeStyle;rounded=0;orthogonalLoop=1;jettySize=auto;html=1;entryX=0.5;entryY=0;entryDx=0;entryDy=0;" parent="1" source="IsJzRhax2m_8LwNahH-P-71" target="IsJzRhax2m_8LwNahH-P-73" edge="1">
          <mxGeometry relative="1" as="geometry">
            <mxPoint x="2125" y="260" as="targetPoint" />
          </mxGeometry>
        </mxCell>
        <mxCell id="IsJzRhax2m_8LwNahH-P-71" value="Start" style="ellipse;whiteSpace=wrap;html=1;rounded=0;fillColor=#FFFFFF;" parent="1" vertex="1">
          <mxGeometry x="2065" y="90" width="120" height="80" as="geometry" />
        </mxCell>
        <mxCell id="IsJzRhax2m_8LwNahH-P-72" value="" style="edgeStyle=orthogonalEdgeStyle;rounded=0;orthogonalLoop=1;jettySize=auto;html=1;" parent="1" source="IsJzRhax2m_8LwNahH-P-73" target="IsJzRhax2m_8LwNahH-P-76" edge="1">
          <mxGeometry relative="1" as="geometry" />
        </mxCell>
        <mxCell id="IsJzRhax2m_8LwNahH-P-73" value="x, y, z" style="verticalLabelPosition=middle;verticalAlign=middle;html=1;shape=trapezoid;perimeter=trapezoidPerimeter;whiteSpace=wrap;size=0.23;arcSize=10;flipV=1;rounded=0;fillColor=#FFFFFF;labelPosition=center;align=center;" parent="1" vertex="1">
          <mxGeometry x="2075" y="260" width="100" height="60" as="geometry" />
        </mxCell>
        <mxCell id="zGXiWuQsmyyL64IAiP0g-2" value="" style="edgeStyle=orthogonalEdgeStyle;rounded=0;orthogonalLoop=1;jettySize=auto;html=1;" edge="1" parent="1" source="IsJzRhax2m_8LwNahH-P-76" target="zGXiWuQsmyyL64IAiP0g-1">
          <mxGeometry relative="1" as="geometry" />
        </mxCell>
        <mxCell id="zGXiWuQsmyyL64IAiP0g-4" value="" style="edgeStyle=orthogonalEdgeStyle;rounded=0;orthogonalLoop=1;jettySize=auto;html=1;" edge="1" parent="1" source="IsJzRhax2m_8LwNahH-P-76" target="zGXiWuQsmyyL64IAiP0g-3">
          <mxGeometry relative="1" as="geometry" />
        </mxCell>
        <mxCell id="IsJzRhax2m_8LwNahH-P-76" value="y&amp;gt;x &amp;amp;&amp;amp; x&amp;gt;z || z&amp;gt;x &amp;amp;&amp;amp; x&amp;gt;y" style="shape=hexagon;perimeter=hexagonPerimeter2;whiteSpace=wrap;html=1;fixedSize=1;rounded=0;fillColor=#FFFFFF;arcSize=10;" parent="1" vertex="1">
          <mxGeometry x="2043" y="390" width="165" height="80" as="geometry" />
        </mxCell>
        <mxCell id="IsJzRhax2m_8LwNahH-P-92" value="DA" style="text;html=1;align=center;verticalAlign=middle;resizable=0;points=[];autosize=1;" parent="1" vertex="1">
          <mxGeometry x="1352" y="389" width="30" height="20" as="geometry" />
        </mxCell>
        <mxCell id="IsJzRhax2m_8LwNahH-P-93" value="NE" style="text;html=1;align=center;verticalAlign=middle;resizable=0;points=[];autosize=1;" parent="1" vertex="1">
          <mxGeometry x="1170" y="389" width="30" height="20" as="geometry" />
        </mxCell>
        <mxCell id="IsJzRhax2m_8LwNahH-P-94" value="DA" style="text;html=1;align=center;verticalAlign=middle;resizable=0;points=[];autosize=1;" parent="1" vertex="1">
          <mxGeometry x="1484" y="489" width="30" height="20" as="geometry" />
        </mxCell>
        <mxCell id="IsJzRhax2m_8LwNahH-P-95" value="NE" style="text;html=1;align=center;verticalAlign=middle;resizable=0;points=[];autosize=1;" parent="1" vertex="1">
          <mxGeometry x="1299" y="488" width="30" height="20" as="geometry" />
        </mxCell>
        <mxCell id="IsJzRhax2m_8LwNahH-P-97" value="DA" style="text;html=1;align=center;verticalAlign=middle;resizable=0;points=[];autosize=1;" parent="1" vertex="1">
          <mxGeometry x="1036" y="488" width="30" height="20" as="geometry" />
        </mxCell>
        <mxCell id="IsJzRhax2m_8LwNahH-P-98" value="NE" style="text;html=1;align=center;verticalAlign=middle;resizable=0;points=[];autosize=1;" parent="1" vertex="1">
          <mxGeometry x="1225" y="488" width="30" height="20" as="geometry" />
        </mxCell>
        <mxCell id="IsJzRhax2m_8LwNahH-P-99" value="DA" style="text;html=1;align=center;verticalAlign=middle;resizable=0;points=[];autosize=1;" parent="1" vertex="1">
          <mxGeometry x="2220" y="409" width="30" height="20" as="geometry" />
        </mxCell>
        <mxCell id="IsJzRhax2m_8LwNahH-P-100" value="NE" style="text;html=1;align=center;verticalAlign=middle;resizable=0;points=[];autosize=1;" parent="1" vertex="1">
          <mxGeometry x="2000" y="409" width="30" height="20" as="geometry" />
        </mxCell>
        <mxCell id="zGXiWuQsmyyL64IAiP0g-10" value="" style="edgeStyle=orthogonalEdgeStyle;rounded=0;orthogonalLoop=1;jettySize=auto;html=1;" edge="1" parent="1" source="zGXiWuQsmyyL64IAiP0g-1" target="zGXiWuQsmyyL64IAiP0g-9">
          <mxGeometry relative="1" as="geometry">
            <Array as="points">
              <mxPoint x="2340" y="840" />
            </Array>
          </mxGeometry>
        </mxCell>
        <mxCell id="zGXiWuQsmyyL64IAiP0g-1" value="x je srednje&lt;br&gt;velicine" style="shape=trapezoid;perimeter=trapezoidPerimeter;whiteSpace=wrap;html=1;fixedSize=1;rounded=0;fillColor=#FFFFFF;arcSize=10;" vertex="1" parent="1">
          <mxGeometry x="2280" y="550" width="120" height="60" as="geometry" />
        </mxCell>
        <mxCell id="zGXiWuQsmyyL64IAiP0g-6" value="" style="edgeStyle=orthogonalEdgeStyle;rounded=0;orthogonalLoop=1;jettySize=auto;html=1;" edge="1" parent="1" source="zGXiWuQsmyyL64IAiP0g-3" target="zGXiWuQsmyyL64IAiP0g-5">
          <mxGeometry relative="1" as="geometry" />
        </mxCell>
        <mxCell id="zGXiWuQsmyyL64IAiP0g-8" value="" style="edgeStyle=orthogonalEdgeStyle;rounded=0;orthogonalLoop=1;jettySize=auto;html=1;" edge="1" parent="1" source="zGXiWuQsmyyL64IAiP0g-3" target="zGXiWuQsmyyL64IAiP0g-7">
          <mxGeometry relative="1" as="geometry" />
        </mxCell>
        <mxCell id="zGXiWuQsmyyL64IAiP0g-3" value="&lt;span&gt;x&amp;gt;y &amp;amp;&amp;amp; y&amp;gt;z || z&amp;gt;y &amp;amp;&amp;amp; y&amp;gt;x&lt;/span&gt;" style="shape=hexagon;perimeter=hexagonPerimeter2;whiteSpace=wrap;html=1;fixedSize=1;rounded=0;fillColor=#FFFFFF;arcSize=10;" vertex="1" parent="1">
          <mxGeometry x="1870" y="540" width="162" height="80" as="geometry" />
        </mxCell>
        <mxCell id="zGXiWuQsmyyL64IAiP0g-12" style="edgeStyle=orthogonalEdgeStyle;rounded=0;orthogonalLoop=1;jettySize=auto;html=1;entryX=0.5;entryY=0;entryDx=0;entryDy=0;" edge="1" parent="1" source="zGXiWuQsmyyL64IAiP0g-5" target="zGXiWuQsmyyL64IAiP0g-9">
          <mxGeometry relative="1" as="geometry" />
        </mxCell>
        <mxCell id="zGXiWuQsmyyL64IAiP0g-5" value="y je srednje&lt;br&gt;velicine" style="shape=trapezoid;perimeter=trapezoidPerimeter;whiteSpace=wrap;html=1;fixedSize=1;rounded=0;fillColor=#FFFFFF;arcSize=10;" vertex="1" parent="1">
          <mxGeometry x="2100" y="550" width="120" height="60" as="geometry" />
        </mxCell>
        <mxCell id="zGXiWuQsmyyL64IAiP0g-11" style="edgeStyle=orthogonalEdgeStyle;rounded=0;orthogonalLoop=1;jettySize=auto;html=1;entryX=0;entryY=0.5;entryDx=0;entryDy=0;" edge="1" parent="1" source="zGXiWuQsmyyL64IAiP0g-7" target="zGXiWuQsmyyL64IAiP0g-9">
          <mxGeometry relative="1" as="geometry">
            <Array as="points">
              <mxPoint x="1951" y="840" />
            </Array>
          </mxGeometry>
        </mxCell>
        <mxCell id="zGXiWuQsmyyL64IAiP0g-7" value="z je srednje&lt;br&gt;velicine" style="shape=trapezoid;perimeter=trapezoidPerimeter;whiteSpace=wrap;html=1;fixedSize=1;rounded=0;fillColor=#FFFFFF;arcSize=10;" vertex="1" parent="1">
          <mxGeometry x="1891" y="710" width="120" height="60" as="geometry" />
        </mxCell>
        <mxCell id="zGXiWuQsmyyL64IAiP0g-9" value="Kraj" style="ellipse;whiteSpace=wrap;html=1;rounded=0;fillColor=#FFFFFF;arcSize=10;" vertex="1" parent="1">
          <mxGeometry x="2100" y="800" width="120" height="80" as="geometry" />
        </mxCell>
        <mxCell id="zGXiWuQsmyyL64IAiP0g-13" value="NE" style="text;html=1;align=center;verticalAlign=middle;resizable=0;points=[];autosize=1;" vertex="1" parent="1">
          <mxGeometry x="1920" y="650" width="30" height="20" as="geometry" />
        </mxCell>
      </root>
    </mxGraphModel>
  </diagram>
</mxfile>
